<svg width="32" height="32" viewBox="0 0 32 32" fill="none" xmlns="http://www.w3.org/2000/svg">
<circle cx="16" cy="16" r="16" fill="#FFF1F0"/>
<g clip-path="url(#clip0_638_433)">
<path d="M9.92851 22.2847C9.75872 22.275 9.59436 22.2214 9.45144 22.1292C9.30852 22.037 9.19191 21.9094 9.11297 21.7587C9.03404 21.6081 8.99546 21.4396 9.00101 21.2696C9.00656 21.0996 9.05605 20.934 9.14464 20.7888L16.0398 9.47265C16.1326 9.32027 16.2652 9.19598 16.4232 9.11308C16.5812 9.03017 16.7587 8.99175 16.9369 9.00194C17.115 9.01213 17.2871 9.07054 17.4346 9.17091C17.5821 9.27129 17.6996 9.40987 17.7745 9.57185L23.3301 21.6025C23.4017 21.7568 23.432 21.9271 23.4181 22.0966C23.4042 22.2661 23.3466 22.4292 23.2509 22.5698C23.1552 22.7104 23.0246 22.8238 22.872 22.899C22.7194 22.9741 22.5499 23.0084 22.3801 22.9985L9.92851 22.2847Z" fill="#E02020"/>
<path d="M16.6986 17.7347C16.6743 17.8109 16.6253 17.8769 16.5594 17.9223C16.4935 17.9678 16.4144 17.99 16.3344 17.9856C16.2545 17.9811 16.1783 17.9503 16.1178 17.8979C16.0574 17.8455 16.016 17.7745 16.0002 17.696C15.2922 14.0347 15.3405 14.292 15.3405 14.2541C15.3394 14.0887 15.3722 13.9249 15.4369 13.7727C15.5016 13.6205 15.5968 13.4832 15.7167 13.3693C15.8365 13.2553 15.9784 13.1672 16.1337 13.1102C16.2889 13.0533 16.4542 13.0288 16.6193 13.0382C16.7844 13.0477 16.9458 13.0909 17.0935 13.1652C17.2413 13.2394 17.3722 13.3432 17.4783 13.4701C17.5843 13.5969 17.6633 13.7442 17.7102 13.9027C17.7571 14.0613 17.771 14.2278 17.751 14.392C17.7438 14.4291 17.822 14.1766 16.6986 17.7347Z" fill="#FFFDFC"/>
<path d="M17.1593 19.7895C17.1487 19.9757 17.083 20.1545 16.9707 20.3033C16.8584 20.4522 16.7045 20.5644 16.5284 20.6258C16.3523 20.6871 16.162 20.6949 15.9815 20.6481C15.801 20.6013 15.6385 20.5021 15.5144 20.3629C15.3903 20.2237 15.3103 20.0508 15.2845 19.8662C15.2587 19.6815 15.2882 19.4933 15.3693 19.3254C15.4504 19.1575 15.5795 19.0175 15.7402 18.9229C15.9009 18.8284 16.0861 18.7837 16.2722 18.7944C16.5218 18.8087 16.7555 18.9216 16.9219 19.1082C17.0882 19.2949 17.1736 19.5399 17.1593 19.7895Z" fill="#FFFDFC"/>
</g>
<defs>
<clipPath id="clip0_638_433">
<rect width="14.4218" height="14" fill="white" transform="translate(9 9)"/>
</clipPath>
</defs>
</svg>
